<svg width="558" height="19" viewBox="0 0 558 19" fill="none" xmlns="http://www.w3.org/2000/svg">
<path d="M19.6689 13.3125C19.0804 13.3125 18.5791 13.1523 18.165 12.832C17.751 12.5091 17.4346 12.0417 17.2158 11.4297C16.9971 10.8151 16.8877 10.0729 16.8877 9.20312C16.8877 8.33854 16.9971 7.60026 17.2158 6.98828C17.4372 6.3737 17.7549 5.90495 18.1689 5.58203C18.5856 5.25651 19.0856 5.09375 19.6689 5.09375C20.2523 5.09375 20.751 5.25651 21.165 5.58203C21.5817 5.90495 21.8994 6.3737 22.1182 6.98828C22.3395 7.60026 22.4502 8.33854 22.4502 9.20312C22.4502 10.0729 22.3408 10.8151 22.1221 11.4297C21.9033 12.0417 21.5869 12.5091 21.1729 12.832C20.7588 13.1523 20.2575 13.3125 19.6689 13.3125ZM19.6689 12.4531C20.2523 12.4531 20.7054 12.1719 21.0283 11.6094C21.3512 11.0469 21.5127 10.2448 21.5127 9.20312C21.5127 8.51042 21.4385 7.92057 21.29 7.43359C21.1442 6.94661 20.9333 6.57552 20.6572 6.32031C20.3838 6.0651 20.0544 5.9375 19.6689 5.9375C19.0908 5.9375 18.639 6.22266 18.3135 6.79297C17.988 7.36068 17.8252 8.16406 17.8252 9.20312C17.8252 9.89583 17.8981 10.4844 18.0439 10.9688C18.1898 11.4531 18.3994 11.8216 18.6729 12.0742C18.9489 12.3268 19.2809 12.4531 19.6689 12.4531ZM24.6221 12.1797C24.4294 12.1797 24.264 12.1107 24.126 11.9727C23.988 11.8346 23.9189 11.6693 23.9189 11.4766C23.9189 11.2839 23.988 11.1185 24.126 10.9805C24.264 10.8424 24.4294 10.7734 24.6221 10.7734C24.8148 10.7734 24.9801 10.8424 25.1182 10.9805C25.2562 11.1185 25.3252 11.2839 25.3252 11.4766C25.3252 11.6042 25.2926 11.7214 25.2275 11.8281C25.165 11.9349 25.0804 12.0208 24.9736 12.0859C24.8695 12.1484 24.7523 12.1797 24.6221 12.1797ZM24.6221 8.13281C24.4294 8.13281 24.264 8.0638 24.126 7.92578C23.988 7.78776 23.9189 7.6224 23.9189 7.42969C23.9189 7.23698 23.988 7.07161 24.126 6.93359C24.264 6.79557 24.4294 6.72656 24.6221 6.72656C24.8148 6.72656 24.9801 6.79557 25.1182 6.93359C25.2562 7.07161 25.3252 7.23698 25.3252 7.42969C25.3252 7.55729 25.2926 7.67448 25.2275 7.78125C25.165 7.88802 25.0804 7.97396 24.9736 8.03906C24.8695 8.10156 24.7523 8.13281 24.6221 8.13281ZM29.5732 13.3125C28.9847 13.3125 28.4834 13.1523 28.0693 12.832C27.6553 12.5091 27.3389 12.0417 27.1201 11.4297C26.9014 10.8151 26.792 10.0729 26.792 9.20312C26.792 8.33854 26.9014 7.60026 27.1201 6.98828C27.3415 6.3737 27.6592 5.90495 28.0732 5.58203C28.4899 5.25651 28.9899 5.09375 29.5732 5.09375C30.1566 5.09375 30.6553 5.25651 31.0693 5.58203C31.486 5.90495 31.8037 6.3737 32.0225 6.98828C32.2438 7.60026 32.3545 8.33854 32.3545 9.20312C32.3545 10.0729 32.2451 10.8151 32.0264 11.4297C31.8076 12.0417 31.4912 12.5091 31.0771 12.832C30.6631 13.1523 30.1618 13.3125 29.5732 13.3125ZM29.5732 12.4531C30.1566 12.4531 30.6097 12.1719 30.9326 11.6094C31.2555 11.0469 31.417 10.2448 31.417 9.20312C31.417 8.51042 31.3428 7.92057 31.1943 7.43359C31.0485 6.94661 30.8376 6.57552 30.5615 6.32031C30.2881 6.0651 29.9587 5.9375 29.5732 5.9375C28.9951 5.9375 28.5433 6.22266 28.2178 6.79297C27.8923 7.36068 27.7295 8.16406 27.7295 9.20312C27.7295 9.89583 27.8024 10.4844 27.9482 10.9688C28.0941 11.4531 28.3037 11.8216 28.5771 12.0742C28.8532 12.3268 29.1852 12.4531 29.5732 12.4531ZM36.3857 5.09375C36.7139 5.09635 37.042 5.15885 37.3701 5.28125C37.6982 5.40365 37.9977 5.60677 38.2686 5.89062C38.5394 6.17187 38.7568 6.55599 38.9209 7.04297C39.085 7.52995 39.167 8.14062 39.167 8.875C39.167 9.58594 39.0993 10.2174 38.9639 10.7695C38.8311 11.319 38.6383 11.7826 38.3857 12.1602C38.1357 12.5378 37.8311 12.8242 37.4717 13.0195C37.1149 13.2148 36.7113 13.3125 36.2607 13.3125C35.8128 13.3125 35.4131 13.224 35.0615 13.0469C34.7126 12.8672 34.4261 12.6185 34.2021 12.3008C33.9808 11.9805 33.8389 11.6094 33.7764 11.1875H34.7295C34.8154 11.5547 34.986 11.8581 35.2412 12.0977C35.499 12.3346 35.8389 12.4531 36.2607 12.4531C36.8779 12.4531 37.3649 12.1836 37.7217 11.6445C38.0811 11.1055 38.2607 10.3437 38.2607 9.35937H38.1982C38.0524 9.57812 37.8792 9.76693 37.6787 9.92578C37.4782 10.0846 37.2555 10.207 37.0107 10.293C36.766 10.3789 36.5055 10.4219 36.2295 10.4219C35.7712 10.4219 35.3506 10.3086 34.9678 10.082C34.5876 9.85286 34.2829 9.53906 34.0537 9.14062C33.8271 8.73958 33.7139 8.28125 33.7139 7.76562C33.7139 7.27604 33.8232 6.82812 34.042 6.42187C34.2633 6.01302 34.5732 5.6875 34.9717 5.44531C35.3727 5.20312 35.8441 5.08594 36.3857 5.09375ZM36.3857 5.95312C36.0576 5.95312 35.762 6.03516 35.499 6.19922C35.2386 6.36068 35.0316 6.57943 34.8779 6.85547C34.7269 7.12891 34.6514 7.43229 34.6514 7.76562C34.6514 8.09896 34.7243 8.40234 34.8701 8.67578C35.0186 8.94661 35.2204 9.16276 35.4756 9.32422C35.7334 9.48307 36.0264 9.5625 36.3545 9.5625C36.6019 9.5625 36.8324 9.51432 37.0459 9.41797C37.2594 9.31901 37.4456 9.1849 37.6045 9.01562C37.766 8.84375 37.8923 8.64974 37.9834 8.43359C38.0745 8.21484 38.1201 7.98698 38.1201 7.75C38.1201 7.4375 38.0446 7.14453 37.8936 6.87109C37.7451 6.59766 37.5394 6.3763 37.2764 6.20703C37.016 6.03776 36.7191 5.95312 36.3857 5.95312Z" fill="#A7A7A7"/>
<path d="M521.007 12.3026C520.538 12.3026 520.121 12.2221 519.754 12.0611C519.389 11.9001 519.099 11.6764 518.884 11.3899C518.67 11.1011 518.554 10.7661 518.536 10.3849H519.43C519.449 10.6193 519.53 10.8217 519.672 10.9922C519.814 11.1603 520 11.2905 520.229 11.3828C520.459 11.4751 520.714 11.5213 520.993 11.5213C521.305 11.5213 521.582 11.4669 521.824 11.358C522.065 11.2491 522.255 11.0975 522.392 10.9034C522.529 10.7093 522.598 10.4844 522.598 10.2287C522.598 9.96117 522.532 9.72562 522.399 9.52202C522.267 9.31605 522.072 9.15507 521.817 9.03906C521.561 8.92306 521.249 8.86506 520.879 8.86506H520.297V8.08381H520.879C521.168 8.08381 521.421 8.03172 521.639 7.92756C521.859 7.82339 522.031 7.67661 522.154 7.48722C522.28 7.29782 522.342 7.07528 522.342 6.8196C522.342 6.57339 522.288 6.35914 522.179 6.17685C522.07 5.99455 521.916 5.85251 521.717 5.75071C521.521 5.64891 521.289 5.59801 521.021 5.59801C520.77 5.59801 520.534 5.64418 520.311 5.73651C520.091 5.82647 519.911 5.95786 519.771 6.13068C519.632 6.30114 519.556 6.5071 519.544 6.74858H518.692C518.706 6.36742 518.821 6.03362 519.036 5.74716C519.252 5.45833 519.533 5.23343 519.881 5.07244C520.232 4.91146 520.616 4.83097 521.036 4.83097C521.485 4.83097 521.871 4.92211 522.193 5.1044C522.515 5.28433 522.763 5.52225 522.935 5.81818C523.108 6.11411 523.195 6.43371 523.195 6.77699C523.195 7.18655 523.087 7.53575 522.871 7.82457C522.658 8.1134 522.368 8.31345 522.001 8.42472V8.48153C522.461 8.55729 522.819 8.7526 523.077 9.06747C523.335 9.37997 523.464 9.76705 523.464 10.2287C523.464 10.6241 523.357 10.9792 523.141 11.294C522.928 11.6065 522.637 11.8527 522.268 12.0327C521.898 12.2126 521.478 12.3026 521.007 12.3026ZM525.542 11.2727C525.367 11.2727 525.216 11.21 525.091 11.0845C524.965 10.959 524.903 10.8087 524.903 10.6335C524.903 10.4583 524.965 10.308 525.091 10.1825C525.216 10.0571 525.367 9.99432 525.542 9.99432C525.717 9.99432 525.867 10.0571 525.993 10.1825C526.118 10.308 526.181 10.4583 526.181 10.6335C526.181 10.7495 526.152 10.8561 526.092 10.9531C526.036 11.0502 525.959 11.1283 525.862 11.1875C525.767 11.2443 525.66 11.2727 525.542 11.2727ZM525.542 7.59375C525.367 7.59375 525.216 7.53101 525.091 7.40554C524.965 7.28007 524.903 7.12973 524.903 6.95455C524.903 6.77936 524.965 6.62902 525.091 6.50355C525.216 6.37808 525.367 6.31534 525.542 6.31534C525.717 6.31534 525.867 6.37808 525.993 6.50355C526.118 6.62902 526.181 6.77936 526.181 6.95455C526.181 7.07055 526.152 7.17708 526.092 7.27415C526.036 7.37121 525.959 7.44934 525.862 7.50852C525.767 7.56534 525.66 7.59375 525.542 7.59375ZM530.228 4.9304V12.2031H529.347V5.85369H529.304L527.529 7.03267V6.13778L529.347 4.9304H530.228ZM532.547 12.2031L535.799 5.76847V5.71165H532.049V4.9304H536.708V5.75426L533.47 12.2031H532.547Z" fill="#A7A7A7"/>
<rect x="48.2031" y="7" width="461.594" height="4" rx="2" fill="white" fill-opacity="0.298"/>
<g clip-path="url(#clip0_0_1959)">
<rect x="-392.303" y="7" width="461.594" height="4" rx="2" fill="white"/>
</g>
<defs>
<clipPath id="clip0_0_1959">
<rect x="48.2031" y="7" width="461.594" height="4" rx="2" fill="white"/>
</clipPath>
</defs>
</svg>
